<svg width="25" height="24" viewBox="0 0 25 24" fill="none" xmlns="http://www.w3.org/2000/svg">
<g id="ic:round-dashboard">
<path id="Vector" d="M4.89534 13H10.8639C11.411 13 11.8587 12.55 11.8587 12V4C11.8587 3.45 11.411 3 10.8639 3H4.89534C4.34822 3 3.90057 3.45 3.90057 4V12C3.90057 12.55 4.34822 13 4.89534 13ZM4.89534 21H10.8639C11.411 21 11.8587 20.55 11.8587 20V16C11.8587 15.45 11.411 15 10.8639 15H4.89534C4.34822 15 3.90057 15.45 3.90057 16V20C3.90057 20.55 4.34822 21 4.89534 21ZM14.843 21H20.8116C21.3587 21 21.8063 20.55 21.8063 20V12C21.8063 11.45 21.3587 11 20.8116 11H14.843C14.2959 11 13.8482 11.45 13.8482 12V20C13.8482 20.55 14.2959 21 14.843 21ZM13.8482 4V8C13.8482 8.55 14.2959 9 14.843 9H20.8116C21.3587 9 21.8063 8.55 21.8063 8V4C21.8063 3.45 21.3587 3 20.8116 3H14.843C14.2959 3 13.8482 3.45 13.8482 4Z" fill="white"/>
</g>
</svg>
