<svg width="30" height="30" viewBox="0 0 30 30" fill="none" xmlns="http://www.w3.org/2000/svg">
<circle opacity="0.1" cx="15" cy="15" r="15" fill="#DF6F79"/>
<path fill-rule="evenodd" clip-rule="evenodd" d="M21.4851 9.59439C21.7661 9.59439 22 9.85279 22 10.1816V10.4856C22 10.8064 21.7661 11.0728 21.4851 11.0728H9.51556C9.2339 11.0728 9 10.8064 9 10.4856V10.1816C9 9.85279 9.2339 9.59439 9.51556 9.59439H11.6214C12.0491 9.59439 12.4214 9.25759 12.5176 8.78239L12.6279 8.23679C12.7993 7.4936 13.3633 7 14.0088 7H16.9912C17.6297 7 18.2 7.4936 18.3651 8.19759L18.4831 8.78159C18.5786 9.25759 18.9509 9.59439 19.3793 9.59439H21.4851ZM20.4154 20.7072C20.6352 18.4376 21.0201 13.0457 21.0201 12.9913C21.0342 12.8265 20.9857 12.6705 20.8895 12.5449C20.7862 12.4273 20.6556 12.3577 20.5116 12.3577H10.494C10.3493 12.3577 10.2116 12.4273 10.1161 12.5449C10.0192 12.6705 9.97139 12.8265 9.97841 12.9913C9.9797 13.0013 9.99352 13.1912 10.0166 13.5087C10.1192 14.9193 10.4049 18.8481 10.5895 20.7072C10.7201 22.0768 11.5314 22.9376 12.7065 22.9688C13.6133 22.992 14.5475 23 15.5028 23C16.4026 23 17.3164 22.992 18.2513 22.9688C19.4671 22.9456 20.2777 22.1 20.4154 20.7072Z" fill="#D11A2A"/>
</svg>
