<svg width="24" height="24" viewBox="0 0 24 24" fill="none" xmlns="http://www.w3.org/2000/svg">
<path d="M20.625 10.5V19.5C20.625 19.9973 20.4275 20.4742 20.0758 20.8258C19.7242 21.1775 19.2473 21.375 18.75 21.375H5.25C4.75272 21.375 4.27581 21.1775 3.92417 20.8258C3.57254 20.4742 3.375 19.9973 3.375 19.5V10.5C3.375 10.0027 3.57254 9.52581 3.92417 9.17418C4.27581 8.82255 4.75272 8.625 5.25 8.625H7.5C7.79837 8.625 8.08452 8.74353 8.2955 8.95451C8.50647 9.16549 8.625 9.45163 8.625 9.75C8.625 10.0484 8.50647 10.3345 8.2955 10.5455C8.08452 10.7565 7.79837 10.875 7.5 10.875H5.625V19.125H18.375V10.875H16.5C16.2016 10.875 15.9155 10.7565 15.7045 10.5455C15.4935 10.3345 15.375 10.0484 15.375 9.75C15.375 9.45163 15.4935 9.16549 15.7045 8.95451C15.9155 8.74353 16.2016 8.625 16.5 8.625H18.75C19.2473 8.625 19.7242 8.82255 20.0758 9.17418C20.4275 9.52581 20.625 10.0027 20.625 10.5ZM9.04594 6.79594L10.875 4.96875V12.75C10.875 13.0484 10.9935 13.3345 11.2045 13.5455C11.4155 13.7565 11.7016 13.875 12 13.875C12.2984 13.875 12.5845 13.7565 12.7955 13.5455C13.0065 13.3345 13.125 13.0484 13.125 12.75V4.96875L14.9541 6.79875C15.0587 6.9034 15.1829 6.98641 15.3197 7.04304C15.4564 7.09968 15.6029 7.12883 15.7509 7.12883C15.8989 7.12883 16.0455 7.09968 16.1822 7.04304C16.3189 6.98641 16.4432 6.9034 16.5478 6.79875C16.6525 6.6941 16.7355 6.56987 16.7921 6.43314C16.8487 6.29641 16.8779 6.14987 16.8779 6.00188C16.8779 5.85388 16.8487 5.70734 16.7921 5.57061C16.7355 5.43388 16.6525 5.30965 16.5478 5.205L12.7978 1.455C12.6933 1.35012 12.5691 1.26691 12.4324 1.21012C12.2956 1.15334 12.149 1.12411 12.0009 1.12411C11.8529 1.12411 11.7063 1.15334 11.5695 1.21012C11.4328 1.26691 11.3086 1.35012 11.2041 1.455L7.45406 5.205C7.34942 5.30965 7.2664 5.43388 7.20977 5.57061C7.15314 5.70734 7.12399 5.85388 7.12399 6.00188C7.12399 6.30076 7.24272 6.58741 7.45406 6.79875C7.66541 7.0101 7.95205 7.12883 8.25094 7.12883C8.54982 7.12883 8.83647 7.0101 9.04781 6.79875L9.04594 6.79594Z" fill="#2969E3"/>
</svg>
