<svg width="25" height="18" viewBox="0 0 25 18" fill="none" xmlns="http://www.w3.org/2000/svg">
<path fill-rule="evenodd" clip-rule="evenodd" d="M17.911 9.96002C19.3977 10.9746 20.4395 12.3491 20.4395 14.1818V17.4546H24.7803V14.1818C24.7803 11.8037 20.9062 10.3964 17.911 9.96002Z" fill="white"/>
<path d="M9.58749 8.72727C11.9848 8.72727 13.9283 6.77361 13.9283 4.36364C13.9283 1.95367 11.9848 0 9.58749 0C7.19014 0 5.2467 1.95367 5.2467 4.36364C5.2467 6.77361 7.19014 8.72727 9.58749 8.72727Z" fill="white"/>
<path fill-rule="evenodd" clip-rule="evenodd" d="M16.0985 8.72727C18.4968 8.72727 20.4393 6.77455 20.4393 4.36364C20.4393 1.95273 18.4968 0 16.0985 0C15.5884 0 15.1109 0.109091 14.6552 0.261818C15.5559 1.38545 16.0985 2.81455 16.0985 4.36364C16.0985 5.91273 15.5559 7.34182 14.6552 8.46546C15.1109 8.61818 15.5884 8.72727 16.0985 8.72727Z" fill="white"/>
<path fill-rule="evenodd" clip-rule="evenodd" d="M9.58734 9.81818C6.68986 9.81818 0.905762 11.28 0.905762 14.1818V17.4545H18.2689V14.1818C18.2689 11.28 12.4848 9.81818 9.58734 9.81818Z" fill="white"/>
</svg>
